General
Unique ID                   : 271160617816869237541247202285087109804 (0xCBFFA2A6E69F536906544D8E43BC32AC)
Complete name               : Alien Liberty International - BETTER DAYS (feat. Dos Monos) [1080p SSTV HD AAC 2.0 x264-SEKAI].mkv
Format                      : Matroska
Format version              : Version 4
File size                   : 184 MiB
Duration                    : 5 min 16 s
Overall bit rate            : 4 875 kb/s
Frame rate                  : 23.976 FPS
Title                       : Alien Liberty International - BETTER DAYS (feat. Dos Monos) [1080p SSTV HD AAC 2.0 x264-SEKAI]
Encoded date                : 2026-04-26 02:36:19 UTC
Writing application         : mkvmerge 98.0 ('Chonks') 64-bit
Writing library             : libebml v1.4.5 + libmatroska v1.7.1
Website                     : https://sekai-archivist.blogspot.com/

Video
ID                          : 1
Format                      : AVC
Format/Info                 : Advanced Video Codec
Format profile              : High@L4.1
Format settings             : CABAC / 8 Ref Frames
Format settings, CABAC      : Yes
Format settings, Reference  : 8 frames
Codec ID                    : V_MPEG4/ISO/AVC
Duration                    : 5 min 15 s
Bit rate                    : 4 619 kb/s
Width                       : 1 440 pixels
Height                      : 1 080 pixels
Display aspect ratio        : 16:9
Frame rate mode             : Constant
Frame rate                  : 23.976 (24000/1001) FPS
Color space                 : YUV
Chroma subsampling          : 4:2:0
Bit depth                   : 8 bits
Scan type                   : Progressive
Bits/(Pixel*Frame)          : 0.124
Stream size                 : 174 MiB (95%)
Writing library             : x264 core 165 r3222 b35605a
Encoding settings           : cabac=1 / ref=8 / deblock=1:-1:-1 / analyse=0x3:0x133 / me=umh / subme=10 / psy=1 / psy_rd=1.00:0.00 / mixed_ref=1 / me_range=32 / chroma_me=1 / trellis=2 / 8x8dct=1 / cqm=0 / deadzone=21,11 / fast_pskip=0 / chroma_qp_offset=-2 / threads=18 / lookahead_threads=3 / sliced_threads=0 / nr=0 / decimate=1 / interlaced=0 / bluray_compat=0 / constrained_intra=0 / bframes=8 / b_pyramid=2 / b_adapt=2 / b_bias=0 / direct=3 / weightb=1 / open_gop=0 / weightp=2 / keyint=240 / keyint_min=24 / scenecut=40 / intra_refresh=0 / rc_lookahead=60 / rc=crf / mbtree=1 / crf=18.0 / qcomp=0.70 / qpmin=0 / qpmax=69 / qpstep=4 / ip_ratio=1.40 / aq=3:0.80
Language                    : Japanese
Default                     : Yes
Forced                      : No
Color range                 : Limited
Color primaries             : BT.709
Transfer characteristics    : BT.709
Matrix coefficients         : BT.709

Audio
ID                          : 2
Format                      : AAC LC
Format/Info                 : Advanced Audio Codec Low Complexity
Codec ID                    : A_AAC-2
Duration                    : 5 min 16 s
Bit rate                    : 254 kb/s
Channel(s)                  : 2 channels
Channel layout              : L R
Sampling rate               : 48.0 kHz
Frame rate                  : 46.875 FPS (1024 SPF)
Compression mode            : Lossy
Stream size                 : 9.57 MiB (5%)
Language                    : Japanese
Default                     : Yes
Forced                      : No

